# xmcd
#
# Track frame offsets:
#	150
#	16052
#	33342
#	43708
#	54598
#	65758
#	79520
#	97900
#	112631
#	124714
#	151191
#	162038
#
# Disc length: 2322 seconds
#
# Revision: 0
# Processed by: cddbd v1.4PL0 Copyright (c) Steve Scherf et al.
# Submitted via: EasyCDDAExtractor 4.6.9.1
#
DISCID=8009100c
DTITLE=Rock County
DYEAR=2002
DGENRE=Bluegrass
TTITLE0=Harvest Of My Heart
TTITLE1=My Sweet Love Ain't Around
TTITLE2=I Can't Go On Loving You
TTITLE3=It'll Get You Where You're Going
TTITLE4=I'm Just As Wrong
TTITLE5=Too Late To Cry
TTITLE6=Turn It On, Turn It On, Turn It On
TTITLE7=Another Song, Another Drink
TTITLE8=Memories Of The Past
TTITLE9=The Hills Of Avalon
TTITLE10=Weary Lonesome Blues
TTITLE11=I'm Not Ashamed To Own My Lord
EXTD=
EXTT0=
EXTT1=
EXTT2=
EXTT3=
EXTT4=
EXTT5=
EXTT6=
EXTT7=
EXTT8=
EXTT9=
EXTT10=
EXTT11=
PLAYORDER=
